<?xml version="1.0" encoding="utf-8"?>
<!-- Generator: Adobe Illustrator 17.1.0, SVG Export Plug-In . SVG Version: 6.00 Build 0)  -->
<!DOCTYPE svg PUBLIC "-//W3C//DTD SVG 1.1//EN" "http://www.w3.org/Graphics/SVG/1.1/DTD/svg11.dtd">
<svg version="1.1" id="Capa_1" xmlns="http://www.w3.org/2000/svg" xmlns:xlink="http://www.w3.org/1999/xlink" x="0px" y="0px"
	 viewBox="0 0 512 512" enable-background="new 0 0 512 512" xml:space="preserve">
<g>
	<g id="Chevron_Right_Circle">
		<path fill="#00304B" d="M256,0C114.6,0,0,114.6,0,256c0,141.4,114.6,256,256,256c141.4,0,256-114.6,256-256
			C512,114.6,397.4,0,256,0z M256,480C132.5,480,32,379.5,32,256S132.5,31.5,256,31.5s224,101,224,224.5S379.5,480,256,480z"/>
	</g>
</g>
<path fill="#00304B" d="M402,282.2l-33.4-50c-2.8-4.2-7.5-6.8-12.6-6.8c-5.1,0-9.8,2.5-12.6,6.8l-33.4,50
	c-3.1,4.7-3.4,10.6-0.8,15.6c2.6,4.9,7.8,8,13.4,8h15.7c-2.8,11.7-8.7,25.3-18.6,37.7c-9.4,11.8-24.7,25.5-50,29.4v-188
	c15.2-5.7,26.2-20.4,26.2-37.6c0-22.2-17.9-40.2-40.1-40.2s-40.3,18-40.3,40.2c0,16.4,9.7,30.5,23.9,36.8v188.5
	c-23.2-4.3-38.5-17.6-47.6-29.1c-9.9-12.4-15.5-26-18.3-37.7h15.7c5.6,0,10.7-3.1,13.4-8c2.6-4.9,2.3-10.9-0.8-15.6l-33.4-50
	c-2.8-4.2-7.5-6.8-12.6-6.8c-5.1,0-9.8,2.5-12.6,6.8l-33.4,50c-3.1,4.7-3.4,10.6-0.8,15.6c2.6,4.9,7.8,8,13.4,8h20
	c3.5,19.7,12.7,40.3,25.8,56.6c14.7,18.4,40.7,40.1,82.4,41.8c1.4,0.4,2.8,0.6,4.3,0.6c1.4,0,2.7-0.2,4-0.6
	c43-1,69.7-23.2,84.7-41.9c13.1-16.4,22.3-37,25.8-56.6h20c5.6,0,10.7-3.1,13.4-8C405.4,292.8,405.1,286.9,402,282.2z M256,137.5
	c5.4,0,9.9,4.4,9.9,9.9c0,5.4-4.4,9.9-9.9,9.9c-5.4,0-9.9-4.4-9.9-9.9C246.1,141.9,250.6,137.5,256,137.5z"/>
</svg>
